# xmcd
#
# Track frame offsets:
#	150
#	18871
#	38039
#	51289
#	68070
#	84690
#	102369
#	121814
#	140543
#	155491
#	169524
#	186870
#	203832
#	219975
#	238341
#	267111
#	283502
#
# Disc length: 4030 seconds
# Revision: 0
# Processed by: cddbd v1.5.2PL0 Copyright (c) Steve Scherf et al.
# Submitted via: dBpowerAMP V12.0
#
DISCID=ed0fbc11
DTITLE=Phil Fasan - Heroes
DYEAR=2016
DGENRE=Country - Rock'n slow
TTITLE0=Classic
TTITLE1=Back To Tennessee
TTITLE2=Tequila Sunrise
TTITLE3=(Just Like) Staring Over
TTITLE4=The World
TTITLE5=Have I Told You Lately
TTITLE6=Waiting On A Sunny Day
TTITLE7=Wave On Wave
TTITLE8=And I Love You So
TTITLE9=Cabo San Lucas
TTITLE10=As Good As I Once Was
TTITLE11=Somebody Like You
TTITLE12=At This Moment
TTITLE13=Working On A Tan
TTITLE14=Lyin' Eyes
TTITLE15=No Time To Kill
TTITLE16=An American Trilogy
EXTD=
EXTT0=
EXTT1=
EXTT2=
EXTT3=
EXTT4=
EXTT5=
EXTT6=
EXTT7=
EXTT8=
EXTT9=
EXTT10=
EXTT11=
EXTT12=
EXTT13=
EXTT14=
EXTT15=
EXTT16=
PLAYORDER=
